<?xml version="1.0" encoding="iso-8859-1"?>
<!-- Generator: Adobe Illustrator 19.0.0, SVG Export Plug-In . SVG Version: 6.00 Build 0)  -->
<svg version="1.1" id="Layer_1" xmlns="http://www.w3.org/2000/svg" xmlns:xlink="http://www.w3.org/1999/xlink" x="0px" y="0px"
	 viewBox="0 0 512 512" style="enable-background:new 0 0 512 512;" xml:space="preserve">
<path style="fill:#FFE14D;" d="M422.957,100.174H89.043c-9.217,0-16.696,7.473-16.696,16.696v328.348h367.304V116.87
	C439.652,107.647,432.174,100.174,422.957,100.174z"/>
<path style="fill:#FFCC33;" d="M422.957,100.174H256v345.043h183.652V116.87C439.652,107.647,432.174,100.174,422.957,100.174z"/>
<path style="fill:#FF9F19;" d="M72.348,411.826v50.087c0,27.619,22.468,50.087,50.087,50.087h267.13
	c27.619,0,50.087-22.468,50.087-50.087v-50.087H72.348z"/>
<path style="fill:#F28618;" d="M256,512h133.565c27.619,0,50.087-22.468,50.087-50.087v-50.087H256V512z"/>
<path style="fill:#736056;" d="M347.27,7.791l-2.895-2.894c-1.446-1.447-3.117-2.56-4.896-3.339C337.365,0.557,335.026,0,332.577,0
	H179.423c-2.449,0-4.787,0.557-6.901,1.558c-3.155,1.38-5.97,3.814-7.791,7.293v24.54H347.27V7.791z"/>
<path style="fill:#665247;" d="M347.27,7.791l-2.895-2.894c-1.446-1.447-3.117-2.56-4.896-3.339C337.365,0.557,335.026,0,332.577,0
	H256v33.391h91.27V7.791z"/>
<path style="fill:#A6673A;" d="M172.522,1.558v154.268c0,6.147-4.983,11.13-11.13,11.13h-11.13c-6.147,0-11.13-4.983-11.13-11.13
	V40.292c0-2.449,0.557-4.786,1.558-6.901c0.778-1.781,1.892-3.45,3.338-4.897l23.598-23.597
	C169.07,3.45,170.742,2.337,172.522,1.558z"/>
<path style="fill:#99522E;" d="M372.87,40.292v115.534c0,6.147-4.983,11.13-11.13,11.13h-11.13c-6.147,0-11.13-4.983-11.13-11.13
	V1.558c1.78,0.778,3.452,1.892,4.896,3.339l23.598,23.597c1.446,1.447,2.56,3.117,3.338,4.897
	C372.313,35.506,372.87,37.843,372.87,40.292z"/>
<g>
</g>
<g>
</g>
<g>
</g>
<g>
</g>
<g>
</g>
<g>
</g>
<g>
</g>
<g>
</g>
<g>
</g>
<g>
</g>
<g>
</g>
<g>
</g>
<g>
</g>
<g>
</g>
<g>
</g>
</svg>
